<svg width="101" height="80" viewBox="0 0 101 80" fill="none" xmlns="http://www.w3.org/2000/svg">
<g style="mix-blend-mode:soft-light">
<path fill-rule="evenodd" clip-rule="evenodd" d="M15.6891 79.8705L9.1729 79.8705C9.0565 78.6069 9.06666 77.3179 9.20646 76.0165C9.79092 70.5546 12.5987 65.1216 17.5047 59.9486C17.8607 59.5744 42.4279 35.3741 48.862 29.0631C51.0832 26.8826 54.057 23.9255 54.9362 23.022C56.9264 20.9796 58.3061 19.4161 59.4554 17.9077C62.1851 14.3206 63.7863 10.7487 64.9005 5.75307C64.9594 5.49513 65.0277 5.24438 65.0613 5.18301C65.1287 5.05077 65.2815 4.91445 65.4002 4.88217C65.6473 4.81768 65.8762 4.95217 65.9477 5.20398C65.9662 5.27524 65.9578 6.99377 65.9153 11.9478C65.859 18.0892 65.8526 18.6226 65.8122 18.9517C65.5572 20.9932 65.0107 22.7147 63.9591 24.7809C63.0134 26.6369 61.7714 28.4859 60.0389 30.6179C58.5887 32.4061 57.1472 33.9976 54.6529 36.5624C54.2204 37.0095 46.9739 44.1653 38.5523 52.4642C30.1308 60.7631 23.0609 67.7448 22.8435 67.9778C22.2555 68.6086 21.8347 69.0771 21.3898 69.6024C18.9476 72.4876 17.1684 75.468 16.1434 78.3924C15.9697 78.8891 15.8182 79.382 15.6891 79.8705ZM59.0613 79.8705L54.5465 79.8705C54.5756 76.7986 54.5904 76.2946 54.6558 75.7973C54.6712 75.6805 54.6893 75.5641 54.7111 75.4149C55.1084 72.7345 56.358 69.8947 58.4814 66.8506C60.0536 64.5988 62.0604 62.2365 64.9421 59.2432C66.2538 57.8807 67.1758 56.9608 72.2298 51.9739C77.1619 47.107 77.814 46.4506 78.5959 45.5747C82.3138 41.3978 84.6617 36.8904 85.2692 32.7657C85.3941 31.9251 85.4205 31.565 85.4274 30.669C85.4365 29.7778 85.42 29.4576 85.3235 28.7529C84.9264 25.801 83.5661 23.266 81.2426 21.141C80.9154 20.8398 80.8121 20.7015 80.7733 20.5069C80.7482 20.3858 80.7507 20.3668 80.806 20.2629C80.8445 20.1874 80.8923 20.1332 80.9471 20.1052C81.0613 20.0468 81.2888 20.0509 81.4756 20.1163C81.6671 20.1818 82.6234 20.6798 83.015 20.9198C84.216 21.652 85.2834 22.4992 86.2901 23.5262C89.1645 26.4567 90.972 30.3438 91.3838 34.4835C92.0621 41.2848 89.0614 48.39 82.7826 54.8515C82.6106 55.0256 78.8106 58.7728 74.3347 63.1786C65.9563 71.4257 65.1274 72.2562 63.6573 73.8593C62.0582 75.606 60.8879 77.0668 59.8736 78.5833C59.5899 79.0062 59.3194 79.4348 59.0613 79.8705ZM79.529 79.8705L66.0953 79.8705C67.5875 78.3695 69.81 76.1727 73.6036 72.4311C80.2721 65.8516 81.4281 64.7013 82.5129 63.5741C85.5284 60.4325 87.9763 57.4288 89.7394 54.7043C93.0616 49.5762 94.5103 44.8628 94.0903 40.5619C93.945 39.0935 93.57 37.602 93.0018 36.2583C92.8621 35.9278 92.8254 35.771 92.8411 35.5791C92.8542 35.4109 92.9381 35.2812 93.0593 35.2466C93.2351 35.1958 93.4454 35.2851 93.6382 35.4975C93.9414 35.827 94.5889 36.7232 95.0316 37.4187C98.6176 43.0831 98.9784 50.183 96.0594 57.7701C93.7885 63.6742 89.5626 69.8195 83.6858 75.7697C83.485 75.9739 81.8143 77.6214 79.529 79.8705ZM96.949 79.8705L87.615 79.8705C89.0574 78.2567 90.2857 76.7768 91.4116 75.3048C95.5898 69.8418 97.5817 65.391 98.065 60.4451C98.1473 59.6042 98.1719 59.173 98.1938 58.1586C98.2159 57.1347 98.2285 57.0305 98.3457 56.8939C98.3792 56.8539 98.4412 56.8117 98.4815 56.8001C98.6811 56.7471 98.8934 56.8862 99.0476 57.1766C99.1201 57.3099 99.3118 57.968 99.475 58.6424C101.056 65.1306 100.213 72.5249 97.0849 79.5674C97.0401 79.6685 96.9947 79.7696 96.949 79.8705ZM55.8021 0.315989L65.1755 0.315991C64.8714 1.19781 64.4808 2.0931 63.9991 3.01887C62.344 6.19693 59.7038 9.55712 55.2717 14.1292C53.8668 15.5763 51.7172 17.7029 36.128 33.0657C26.8251 42.2326 18.9743 49.9812 18.6781 50.2847C16.2577 52.7837 14.548 54.7335 12.9367 56.8309C9.24232 61.648 7.11013 66.1523 6.55934 70.3059C6.20472 72.9819 6.50273 75.5585 7.43538 77.91C7.52144 78.1264 7.62379 78.3832 7.66334 78.4806C7.74705 78.6946 7.7616 78.9626 7.69189 79.0901C7.61736 79.227 7.53883 79.2667 7.37298 79.256C7.16212 79.2401 7.0207 79.1347 6.74365 78.7842C4.41463 75.8318 3.02804 72.3911 2.66074 68.6406C2.57492 67.77 2.5608 67.4451 2.56904 66.3642C2.57885 65.0771 2.63701 64.2882 2.80957 63.1066C3.9253 55.43 8.65571 47.1694 16.5996 39.0209C16.9031 38.7103 25.0953 30.6396 34.8041 21.0847C51.0189 5.12926 54.0976 2.08769 55.3544 0.784013C55.5068 0.625742 55.656 0.469784 55.8021 0.315989ZM33.7412 0.31599L47.1702 0.315991C43.9941 3.45004 40.089 7.30045 35.931 11.3975C25.9188 21.263 17.3729 29.6985 16.9405 30.1456C14.1929 32.9716 12.266 35.1069 10.4857 37.2908C5.82922 43.0085 3.47843 47.5798 2.71878 52.3909C2.53199 53.5723 2.45388 54.4915 2.41892 55.968C2.38823 57.1957 2.38324 57.2288 2.22575 57.3651C2.15656 57.4238 2.12329 57.4354 2.0261 57.4347C1.93366 57.434 1.89347 57.4195 1.811 57.3548C1.58712 57.1825 1.53111 57.0659 1.33033 56.3508C0.928811 54.9136 0.651061 53.411 0.494811 51.8287C0.378159 50.6497 0.362158 50.2608 0.373969 48.7106C0.384859 47.2813 0.399114 46.9661 0.491922 45.9854C1.28089 37.6379 5.25073 29.3311 12.0281 21.847C12.1073 21.7594 12.1762 21.6827 12.2454 21.6063C13.0828 20.6822 13.9693 19.8025 33.7412 0.31599Z" fill="white"/>
</g>
</svg>
